<svg xmlns="http://www.w3.org/2000/svg" width="8.486" height="8.461" viewBox="0 0 8.486 8.461"><defs><style>.a{fill:#fff;stroke:#fff;stroke-width:0.2px;}</style></defs><g transform="translate(-10.865 -10.867)"><g transform="translate(11 11)"><path class="a" d="M18.615,15.871l.613-2.989h-6.04l-.21-.994L11.158,11,11,11.314l1.662.8.84,4.01h4.853s.479.3.294.68a.523.523,0,0,1-.438.262H13.381v.346h4.831a.872.872,0,0,0,.771-.453C19.292,16.383,18.615,15.871,18.615,15.871Zm-4.814-.1-.542-2.546h5.55l-.526,2.546H13.8Z" transform="translate(-11 -11)"/><path class="a" d="M173.265,422.1a.662.662,0,1,0,.665.662A.663.663,0,0,0,173.265,422.1Zm0,.976a.314.314,0,1,1,.316-.314A.314.314,0,0,1,173.265,423.076Z" transform="translate(-169.886 -415.197)"/><path class="a" d="M385.965,422.1a.662.662,0,1,0,0,1.325.651.651,0,0,0,.665-.662A.664.664,0,0,0,385.965,422.1Zm.316.663a.316.316,0,1,1-.316-.314A.3.3,0,0,1,386.281,422.763Z" transform="translate(-379.015 -415.197)"/></g></g></svg>