<svg xmlns="http://www.w3.org/2000/svg" width="15.844" height="15.204" viewBox="0 0 15.844 15.204"><defs><style>.a{fill:#fff;stroke:#fff;stroke-width:0.5px;}</style></defs><g transform="translate(0.25 0.25)"><g transform="translate(0 0)"><g transform="translate(0 0)"><path class="a" d="M15.344,19.458a1.42,1.42,0,0,0-.416-1.006,1.587,1.587,0,0,0,.409-1.22,1.653,1.653,0,0,0-1.667-1.449H9.72a9.192,9.192,0,0,0,.509-2.557,2.613,2.613,0,0,0-1.918-2.557,2.008,2.008,0,0,0-1.158.389.32.32,0,0,0-.12.25v2.168L5.191,17.463l-.076.039V17.38a.32.32,0,0,0-.32-.32H1.6a1.6,1.6,0,0,0-1.6,1.6v5.115a1.6,1.6,0,0,0,1.6,1.6H3.516a1.6,1.6,0,0,0,1.5-1.057,4.168,4.168,0,0,0,1.692.417h5.868a1.471,1.471,0,0,0,1.449-1.116,1.443,1.443,0,0,0-.115-.961,1.433,1.433,0,0,0,.64-1.918A1.433,1.433,0,0,0,15.344,19.458ZM14,20.246a.32.32,0,0,0-.183.55.792.792,0,0,1-.456,1.367.32.32,0,0,0-.183.55.791.791,0,0,1,.231.763.827.827,0,0,1-.824.615H6.713a3.03,3.03,0,0,1-1.692-.546.32.32,0,0,0-.546.226.96.96,0,0,1-.959.959H1.6a.96.96,0,0,1-.959-.959V18.658A.96.96,0,0,1,1.6,17.7H4.475v.32a.321.321,0,0,0,.152.272.327.327,0,0,0,.311.013l.639-.32a.319.319,0,0,0,.147-.152l1.918-4.156a.326.326,0,0,0,.029-.134V11.48a1.348,1.348,0,0,1,.639-.173A2.111,2.111,0,0,1,9.59,13.224a9.955,9.955,0,0,1-.618,2.763.319.319,0,0,0,.3.433h4.4a1.009,1.009,0,0,1,1.031.869.955.955,0,0,1-.455.9.32.32,0,0,0,.022.557.792.792,0,0,1-.271,1.5Z" transform="translate(0 -10.667)"/></g></g><g transform="translate(4.475 7.032)"><path class="a" d="M149.653,245.333a.32.32,0,0,0-.32.32v5.754a.32.32,0,1,0,.639,0v-5.754A.32.32,0,0,0,149.653,245.333Z" transform="translate(-149.333 -245.333)"/></g></g></svg>