<svg xmlns="http://www.w3.org/2000/svg" xmlns:xlink="http://www.w3.org/1999/xlink" width="74.629" height="53.999" viewBox="0 0 74.629 53.999"><defs><style>.a,.b{fill:#3C6E71;}.a,.j,.o{opacity:0.1;}.c{fill:#fff;opacity:0.4;}.d,.e,.o,.p,.q,.r{fill:none;stroke-miterlimit:10;}.d,.e{stroke:#535461;}.e{stroke-width:2px;}.f{fill:#d9d9d9;}.g{fill:#d6e0d9;}.h{fill:#fc6681;}.i{fill:#ffd037;}.k{fill:url(#a);}.l{fill:#e2e2ec;}.m{fill:#f1f2fb;}.n{fill:#e8eaf8;}.o{stroke:#000;}.o,.q,.r{stroke-width:4px;}.p,.q,.r{stroke:#3C6E71;}.p{stroke-width:8px;opacity:0.747;}.q{opacity:0.892;}.r{opacity:0.969;}</style><linearGradient id="a" x1="0.5" y1="1" x2="0.5" gradientUnits="objectBoundingBox"><stop offset="0" stop-color="gray" stop-opacity="0.251"/><stop offset="0.54" stop-color="gray" stop-opacity="0.122"/><stop offset="1" stop-color="gray" stop-opacity="0.102"/></linearGradient></defs><g transform="translate(0 0)"><path class="a" d="M225.735,128.3c-2.36,3.859-1.942,9.1-.931,13.234a10.076,10.076,0,0,1,.428,4.394,6.765,6.765,0,0,1-3.019,4.246,6.025,6.025,0,0,1-7.2-.082c-1.733-1.392-2.868-3.828-4.636-5.145-2.962-2.2-7.042-.843-10.591,1.246-2.511,1.477-5.275,3.346-7.584,2.3-1.625-.733-2.63-2.816-3.1-5.085a9.911,9.911,0,0,0-.878-3.126,3.433,3.433,0,0,0-1.181-1.1c-4.049-2.468-9.549-.367-13.451-3.164-2.636-1.89-4.123-5.808-4.6-10a58.1,58.1,0,0,1,.47-13.115c.375-3.144.879-6.511,2.515-9.075a7.392,7.392,0,0,1,6.8-3.688c2.354.243,4.393,1.753,6.148,3.6,2.194,2.306,4.167,5.254,7.015,5.988,1.938.5,4.063-.1,6.127-.439a45.772,45.772,0,0,1,10.225-.232,31.616,31.616,0,0,1,9.488,1.566c2.128.809,3.756,2.5,5.74,3.6,1.293.716,2.755.8,3.959,1.759a6.058,6.058,0,0,1,2.153,6.132C229.062,124.752,226.986,126.254,225.735,128.3Z" transform="translate(-161.317 -97.325)"/><path class="b" d="M303.892,127.326s-10.182-2.277,2.773-15.6c0,0,5.584,5.293,3.536,11.872a5.409,5.409,0,0,1-6.159,3.755Z" transform="translate(-283.527 -108.138)"/><path class="c" d="M304.323,127.326c-.224-.05-9.964-2.5,2.773-15.6,0,0,5.584,5.293,3.536,11.872a5.409,5.409,0,0,1-6.159,3.755Z" transform="translate(-283.958 -108.138)"/><path class="d" d="M357,127.412s5.378-8.1,2.64-15.672" transform="translate(-336.5 -108.148)"/><path class="e" d="M952.719,151.4s-1.755-7.066.9-12.1a11.028,11.028,0,0,0,1.187-6.875,18.544,18.544,0,0,0-.84-3.287" transform="translate(-890.469 -124.344)"/><path class="b" d="M960.737,61.436c-.037.855-1.691,3.268-1.691,3.268s-1.442-2.546-1.405-3.4a1.55,1.55,0,1,1,3.1.133Z" transform="translate(-895.578 -59.82)"/><path class="b" d="M993.466,120.291c-.5.7-3.2,1.825-3.2,1.825s.173-2.921.668-3.619a1.55,1.55,0,1,1,2.527,1.795Z" transform="translate(-925.95 -113.829)"/><path class="b" d="M980.33,230.259c-.78.352-3.68-.038-3.68-.038s1.624-2.434,2.4-2.787a1.55,1.55,0,1,1,1.276,2.825Z" transform="translate(-913.272 -215.707)"/><path class="b" d="M956.024,319.3c-.709.479-3.634.584-3.634.584s1.19-2.673,1.9-3.153a1.55,1.55,0,1,1,1.735,2.569Z" transform="translate(-890.691 -298.709)"/><path class="b" d="M937.493,144.835c.587.623,3.419,1.362,3.419,1.362s-.578-2.868-1.166-3.49a1.55,1.55,0,1,0-2.253,2.129Z" transform="translate(-876.431 -136.519)"/><path class="b" d="M905.087,243.648c.747.415,3.667.277,3.667.277s-1.407-2.564-2.155-2.982a1.55,1.55,0,0,0-1.513,2.7Z" transform="translate(-845.952 -228.243)"/><path class="b" d="M894.17,348.715c.666.538,3.57.893,3.57.893s-.956-2.768-1.622-3.3a1.55,1.55,0,1,0-1.948,2.411Z" transform="translate(-835.964 -326.16)"/><path class="b" d="M960.737,61.436c-.037.855-1.691,3.268-1.691,3.268s-1.442-2.546-1.405-3.4a1.55,1.55,0,1,1,3.1.133Z" transform="translate(-895.578 -59.82)"/><path class="f" d="M993.466,120.291c-.5.7-3.2,1.825-3.2,1.825s.173-2.921.668-3.619a1.55,1.55,0,1,1,2.527,1.795Z" transform="translate(-925.95 -113.829)"/><path class="g" d="M980.33,230.259c-.78.352-3.68-.038-3.68-.038s1.624-2.434,2.4-2.787a1.55,1.55,0,1,1,1.276,2.825Z" transform="translate(-913.272 -215.707)"/><path class="h" d="M956.024,319.3c-.709.479-3.634.584-3.634.584s1.19-2.673,1.9-3.153a1.55,1.55,0,1,1,1.735,2.569Z" transform="translate(-890.691 -298.709)"/><path class="b" d="M937.493,144.835c.587.623,3.419,1.362,3.419,1.362s-.578-2.868-1.166-3.49a1.55,1.55,0,1,0-2.253,2.129Z" transform="translate(-876.431 -136.519)"/><path class="f" d="M905.087,243.648c.747.415,3.667.277,3.667.277s-1.407-2.564-2.155-2.982a1.55,1.55,0,0,0-1.513,2.7Z" transform="translate(-845.952 -228.243)"/><path class="h" d="M894.17,348.715c.666.538,3.57.893,3.57.893s-.956-2.768-1.622-3.3a1.55,1.55,0,1,0-1.948,2.411Z" transform="translate(-835.964 -326.16)"/><path class="e" d="M867.52,182.178s7.36-6.168,9-9.278a44.24,44.24,0,0,1,3.721-5.79" transform="translate(-811.694 -159.686)"/><path class="b" d="M994.523,257.908l-3.183-.718S992.09,260.549,994.523,257.908Z" transform="translate(-926.946 -243.533)"/><path class="b" d="M960.533,218l1.832,2.744S958.785,221,960.533,218Z" transform="translate(-897.823 -207.055)"/><path class="b" d="M1016.29,223.421l-2.91-.511S1015.209,225.691,1016.29,223.421Z" transform="translate(-947.46 -211.625)"/><path class="b" d="M989.488,194.86l1.437,1.878S988.382,196.977,989.488,194.86Z" transform="translate(-924.963 -185.516)"/><path class="b" d="M1035.14,189.45a13.042,13.042,0,0,1,2.768.355c.287.237-.37,1.625-1.315,1.4S1035.14,189.45,1035.14,189.45Z" transform="translate(-967.715 -180.48)"/><path class="b" d="M1008.406,157.44a10.8,10.8,0,0,1,.974,2.2c-.038.351-1.542.745-1.847-.585A1.253,1.253,0,0,1,1008.406,157.44Z" transform="translate(-941.971 -150.685)"/><circle class="i" cx="0.692" cy="0.692" r="0.692" transform="translate(68.226 8.193) rotate(-72.43)"/><circle class="i" cx="0.692" cy="0.692" r="0.692" transform="translate(67.143 7.487) rotate(-72.43)"/><path class="b" d="M235.988,112.676s2.975-2.214-.761-9.964c0,0-4.982-6.159,0-11.971,0,0-10.864.277-10.656,10.38S230,112.676,230,112.676Z" transform="translate(-213.232 -88.601)"/><path class="e" d="M298.19,112.648s-.749-5.328-2.756-8.58a6.975,6.975,0,0,1-.844-2.127,8.709,8.709,0,0,1,2.452-8.146l3.166-3.084" transform="translate(-278.213 -88.573)"/><path class="b" d="M453.865,150.69s.684.894-.316,2.243-1.823,2.491-1.49,3.33c0,0,1.507-2.506,2.734-2.542S455.215,152.2,453.865,150.69Z" transform="translate(-424.912 -144.402)"/><path class="j" d="M454.373,150.69a1.108,1.108,0,0,1,.138.28c1.2,1.406,1.834,2.719.684,2.752-1.072.03-2.358,1.947-2.665,2.431a1.04,1.04,0,0,0,.037.11s1.507-2.506,2.734-2.542S455.722,152.2,454.373,150.69Z" transform="translate(-425.42 -144.402)"/><path class="i" d="M495.4,164.442c0,.315-.035.57-.079.57s-.079-.255-.079-.57.044-.167.088-.167S495.4,164.128,495.4,164.442Z" transform="translate(-465.174 -157.016)"/><path class="i" d="M496.568,169.682c-.277.151-.517.242-.538.2s.186-.191.462-.342.167-.041.188,0S496.844,169.531,496.568,169.682Z" transform="translate(-465.909 -161.879)"/><path class="b" d="M406.365,150.69s-.684.894.316,2.243,1.823,2.491,1.49,3.33c0,0-1.507-2.506-2.734-2.542S405.015,152.2,406.365,150.69Z" transform="translate(-381.022 -144.402)"/><path class="j" d="M406.352,150.69a1.108,1.108,0,0,0-.138.28c-1.2,1.406-1.834,2.719-.684,2.752,1.072.03,2.358,1.947,2.665,2.431a1.033,1.033,0,0,1-.037.11s-1.509-2.507-2.736-2.541S405,152.2,406.352,150.69Z" transform="translate(-381.008 -144.402)"/><path class="i" d="M408.62,164.442c0,.315.035.57.079.57s.079-.255.079-.57-.044-.167-.088-.167S408.62,164.128,408.62,164.442Z" transform="translate(-384.548 -157.016)"/><path class="i" d="M400.06,169.682c.277.151.517.242.538.2s-.186-.191-.462-.342-.167-.041-.188,0S399.784,169.531,400.06,169.682Z" transform="translate(-376.425 -161.879)"/><path class="k" d="M135.379,232.386l-6.062-26.674h-2.252c-.09-1.019-.15-2.007-.173-2.937,0,0-8.165,1.787-14.677-3.382s-14.167.447-14.167.447l-.03-.021v0c-.531-.376-7.865-5.4-14.135-.424-6.509,5.169-14.677,3.382-14.677,3.382-.023.942-.084,1.938-.176,2.966h-2.09L60.75,232.482s25.167.942,33.986.073c.316.668,1.679,1.171,3.312,1.171,1.835,0,3.328-.635,3.38-1.425C108.293,232.823,123.066,233.659,135.379,232.386Z" transform="translate(-60.75 -187.699)"/><path class="l" d="M78.061,323.11,72,349.291s33.365,1.25,36.052-.5c0,0,20.713,2.093,37.021.406l-5.936-26.117Z" transform="translate(-71.222 -304.863)"/><path class="j" d="M113.381,336.2l-5.651,24.408s31.107,1.165,33.612-.466c0,0,19.311,1.951,34.515.379l-5.536-24.35Z" transform="translate(-104.479 -317.048)"/><path class="m" d="M180.892,208.188s-8,1.749-14.371-3.312-13.871.437-13.871.437-7.5-5.5-13.871-.437-14.371,3.312-14.371,3.312c-.252,10.184-5,26.68-5,26.68s8.747,2.374,20.307-2.436,12.934,1.687,12.934,1.687,1.374-6.5,12.934-1.687,20.307,2.436,20.307,2.436S181.142,218.372,180.892,208.188Z" transform="translate(-115.351 -192.846)"/><path class="j" d="M376.75,644.535s10.56-2.374,15.431,1.125c0,0,4.686-4.249,15.558-.937" transform="translate(-354.884 -603.073)"/><ellipse class="n" cx="3.312" cy="1.437" rx="3.312" ry="1.437" transform="translate(33.987 42.771)"/><path class="j" d="M599.32,239.55s2.374,12.059.062,29.054" transform="translate(-562.052 -227.113)"/><path class="o" d="M224.7,302.894a22.1,22.1,0,0,0,9.278,0c4.3-1.156,12.208-4.936,14.808,0" transform="translate(-213.355 -283.772)"/><path class="o" d="M224.7,355.524a22.1,22.1,0,0,0,9.278,0c4.3-1.156,13.626-1.093,14.808,0" transform="translate(-213.355 -334.277)"/><path class="p" d="M224.7,387.724a22.1,22.1,0,0,0,9.278,0c4.3-1.156,12.208-4.936,14.808,0" transform="translate(-213.355 -362.732)"/><path class="q" d="M224.7,432.6a22.1,22.1,0,0,0,9.278,0c4.3-1.156,6.379-2.011,7.561-.918" transform="translate(-213.355 -405.481)"/><path class="o" d="M650.856,302.894a22.1,22.1,0,0,1-9.278,0c-4.3-1.156-12.208-4.936-14.808,0" transform="translate(-587.603 -283.772)"/><path class="o" d="M650.856,355.524a22.1,22.1,0,0,1-9.278,0c-4.3-1.156-13.626-1.093-14.808,0" transform="translate(-587.603 -334.277)"/><path class="o" d="M650.856,387.724a22.1,22.1,0,0,1-9.278,0c-4.3-1.156-12.208-4.936-14.808,0" transform="translate(-587.603 -362.732)"/><path class="o" d="M650.856,440.394a22.1,22.1,0,0,1-9.278,0c-4.3-1.156-13.626-1.093-14.808,0" transform="translate(-587.603 -413.274)"/><path class="b" d="M915.645,752.163a1.181,1.181,0,0,0,.465-.572.484.484,0,0,0-.325-.583,1.041,1.041,0,0,0-.859.246,1.265,1.265,0,0,1-.834.329.928.928,0,0,0,.393-.969.375.375,0,0,0-.109-.2.621.621,0,0,0-.664.031,1.845,1.845,0,0,0-.81,1.689,2.629,2.629,0,0,1-.012-.7.663.663,0,0,0-.32-.616,1.146,1.146,0,0,0-.489-.093,1.174,1.174,0,0,0-.792.184.553.553,0,0,0,.031.794,3.05,3.05,0,0,0,.82.536,1.709,1.709,0,0,1,.586.456.413.413,0,0,1,.044.082h1.776A5.107,5.107,0,0,0,915.645,752.163Z" transform="translate(-852.291 -702.551)"/><path class="r" d="M650.856,440.394a22.1,22.1,0,0,1-9.278,0c-4.3-1.156-13.626-1.093-14.808,0" transform="translate(-587.464 -409.814)"/><path class="o" d="M650.856,440.394a22.1,22.1,0,0,1-9.278,0c-4.3-1.156-13.626-1.093-14.808,0" transform="translate(-587.257 -405.178)"/><path class="o" d="M224.7,387.724a22.1,22.1,0,0,0,9.278,0c4.3-1.156,12.208-4.936,14.808,0" transform="translate(-213.355 -355.535)"/><path class="o" d="M224.7,387.724a22.1,22.1,0,0,0,9.278,0c4.3-1.156,12.208-4.936,14.808,0" transform="translate(-213.355 -352.56)"/></g></svg>