<svg xmlns="http://www.w3.org/2000/svg" width="13.917" height="14.238" viewBox="0 0 13.917 14.238"><defs><style>.a{fill:#3C6E71;stroke:#3C6E71;stroke-width:0.1px;}</style></defs><g transform="translate(0.05 0.056)"><g transform="translate(0 0)"><g transform="translate(0 0)"><path class="a" d="M19.331,13.014h0L15.889.17a.229.229,0,0,0-.28-.162l-3.1.831A.224.224,0,0,0,12.4.91V.418A.229.229,0,0,0,12.17.189H5.751a.229.229,0,0,0-.229.229v13.3a.229.229,0,0,0,.229.229H12.17a.229.229,0,0,0,.229-.229V1.318l3.388,12.644a.229.229,0,0,0,.221.17.237.237,0,0,0,.059-.008l3.1-.831A.229.229,0,0,0,19.331,13.014Zm-10.6.472H5.98V.647H8.732Zm3.21,0H9.19V.647h2.751Zm4.23.138-3.323-12.4L15.506.51l3.323,12.4Z" transform="translate(-5.522 0)"/></g></g><g transform="translate(0.917 1.564)"><g transform="translate(0)"><path class="a" d="M39.127,54.589H37.751a.229.229,0,1,0,0,.459h1.376a.229.229,0,1,0,0-.459Z" transform="translate(-37.522 -54.589)"/></g></g><g transform="translate(0.917 2.481)"><g transform="translate(0)"><path class="a" d="M39.127,86.589H37.751a.229.229,0,0,0,0,.459h1.376a.229.229,0,0,0,0-.459Z" transform="translate(-37.522 -86.589)"/></g></g><g transform="translate(4.127 1.564)"><path class="a" d="M151.127,54.589h-1.375a.229.229,0,1,0,0,.459h1.375a.229.229,0,0,0,0-.459Z" transform="translate(-149.522 -54.589)"/></g><g transform="translate(4.127 2.481)"><path class="a" d="M151.127,86.589h-1.375a.229.229,0,1,0,0,.459h1.375a.229.229,0,0,0,0-.459Z" transform="translate(-149.522 -86.589)"/></g><g transform="translate(8.055 1.564)"><path class="a" d="M288.4,54.767a.229.229,0,0,0-.276-.17l-.012,0-1.33.356a.229.229,0,1,0,.116.443h0l1.33-.356A.229.229,0,0,0,288.4,54.767Z" transform="translate(-286.608 -54.591)"/></g><g transform="translate(8.294 2.452)"><g transform="translate(0)"><path class="a" d="M296.741,85.724a.229.229,0,0,0-.281-.162h0l-1.329.356a.229.229,0,0,0,.116.443h0l1.33-.356A.229.229,0,0,0,296.741,85.724Z" transform="translate(-294.96 -85.554)"/></g></g><g transform="translate(10.549 10.867)"><path class="a" d="M375.423,379.374a.229.229,0,0,0-.279-.161l-1.33.356a.229.229,0,0,0,.059.451h0a.238.238,0,0,0,.059-.008l1.328-.356A.229.229,0,0,0,375.423,379.374Z" transform="translate(-373.644 -379.205)"/></g><g transform="translate(10.788 11.753)"><path class="a" d="M383.767,410.286a.229.229,0,0,0-.279-.162l-1.33.356a.229.229,0,0,0,.059.451.217.217,0,0,0,.059-.008l1.33-.356A.229.229,0,0,0,383.767,410.286Z" transform="translate(-381.988 -410.117)"/></g><g transform="translate(4.127 11.193)"><path class="a" d="M151.127,390.589h-1.375a.229.229,0,1,0,0,.459h1.375a.229.229,0,0,0,0-.459Z" transform="translate(-149.522 -390.589)"/></g><g transform="translate(4.127 12.11)"><path class="a" d="M151.127,422.589h-1.375a.229.229,0,1,0,0,.458h1.375a.229.229,0,1,0,0-.458Z" transform="translate(-149.522 -422.589)"/></g><g transform="translate(0.917 11.193)"><g transform="translate(0)"><path class="a" d="M39.127,390.589H37.751a.229.229,0,0,0,0,.459h1.376a.229.229,0,0,0,0-.459Z" transform="translate(-37.522 -390.589)"/></g></g><g transform="translate(0.917 12.11)"><g transform="translate(0)"><path class="a" d="M39.127,422.589H37.751a.229.229,0,1,0,0,.458h1.376a.229.229,0,1,0,0-.458Z" transform="translate(-37.522 -422.589)"/></g></g></g></svg>