<svg xmlns="http://www.w3.org/2000/svg" width="17.384" height="14.488" viewBox="0 0 17.384 14.488"><defs><style>.a{fill:#3C6E71;}</style></defs><g transform="translate(-175 19.015)"><g transform="translate(175 -19.015)"><path class="a" d="M17.094,41.725H15.935V40.276a.29.29,0,0,0-.289-.291h-.025l-.756.064a17.577,17.577,0,0,0-5.328,1.3l-.845.351-.844-.35a17.582,17.582,0,0,0-5.329-1.3l-.756-.065a.29.29,0,0,0-.313.264c0,.008,0,.017,0,.025v1.449H.29a.29.29,0,0,0-.29.29V54.183a.29.29,0,0,0,.29.29h16.8a.29.29,0,0,0,.29-.29V42.014A.29.29,0,0,0,17.094,41.725ZM.579,53.894V42.3h.869V52.445a.29.29,0,0,0,.265.29l.78.067q.319.027.637.066c.071.008.141.02.212.029.141.019.281.038.421.06.083.013.167.029.25.044.127.022.254.045.38.07.087.017.174.037.261.055.122.026.244.053.365.082l.263.065c.12.031.239.062.358.1l.261.075q.177.052.354.109l.258.085c.119.04.236.081.354.124.083.029.167.061.25.092l.107.042ZM8.4,53.749l-.534-.223a17.572,17.572,0,0,0-5.326-1.3l-.514-.043V40.591l.442.037a17,17,0,0,1,5.155,1.257l.777.323Zm.579,0V42.208l.778-.323a17,17,0,0,1,5.154-1.256l.442-.037V52.178l-.476.039a17.691,17.691,0,0,0-5.331,1.3Zm7.823.145H10.164l.119-.047c.087-.033.174-.065.263-.1q.17-.062.342-.12l.269-.087c.114-.037.229-.071.344-.105.09-.027.181-.053.272-.078.116-.032.232-.063.351-.093.09-.023.18-.046.27-.067.121-.029.242-.055.363-.081.087-.019.174-.038.262-.056.127-.025.256-.048.383-.07l.249-.043c.143-.023.286-.042.429-.061l.206-.029q.319-.039.641-.066l.742-.06a.29.29,0,0,0,.266-.29V42.3H16.8V53.894Z" transform="translate(0 -39.985)"/></g></g></svg>