<svg xmlns="http://www.w3.org/2000/svg" width="15.008" height="14.386" viewBox="0 0 15.008 14.386"><defs><style>.a{fill:#3C6E71;stroke:#3C6E71;stroke-width:0.1px;}</style></defs><g transform="translate(0.05 -10.617)"><g transform="translate(0 10.667)"><g transform="translate(0 0)"><path class="a" d="M14.907,19.208a1.38,1.38,0,0,0-.4-.978,1.542,1.542,0,0,0,.4-1.186,1.606,1.606,0,0,0-1.62-1.408H9.444a8.931,8.931,0,0,0,.494-2.485,2.539,2.539,0,0,0-1.863-2.485,1.951,1.951,0,0,0-1.125.378.311.311,0,0,0-.117.243v2.106L5.043,17.27l-.074.038v-.119a.311.311,0,0,0-.311-.311H1.553A1.554,1.554,0,0,0,0,18.431V23.4a1.554,1.554,0,0,0,1.553,1.553H3.416a1.556,1.556,0,0,0,1.462-1.027,4.049,4.049,0,0,0,1.644.406h5.7a1.429,1.429,0,0,0,1.407-1.084,1.4,1.4,0,0,0-.112-.934,1.392,1.392,0,0,0,.622-1.863A1.392,1.392,0,0,0,14.907,19.208Zm-1.31.766a.311.311,0,0,0-.178.535.77.77,0,0,1-.443,1.329.311.311,0,0,0-.178.535.768.768,0,0,1,.225.741.8.8,0,0,1-.8.6h-5.7a2.944,2.944,0,0,1-1.644-.53.311.311,0,0,0-.53.22.933.933,0,0,1-.932.932H1.553A.933.933,0,0,1,.621,23.4V18.431a.933.933,0,0,1,.932-.932h2.8v.311a.312.312,0,0,0,.148.265.317.317,0,0,0,.3.013l.621-.311a.31.31,0,0,0,.143-.147l1.863-4.037a.316.316,0,0,0,.029-.13V11.456a1.31,1.31,0,0,1,.621-.168,2.051,2.051,0,0,1,1.242,1.863,9.672,9.672,0,0,1-.6,2.685.31.31,0,0,0,.29.421H13.28a.981.981,0,0,1,1,.844.928.928,0,0,1-.442.879.311.311,0,0,0,.021.541.769.769,0,0,1-.263,1.453Z" transform="translate(0 -10.667)"/></g></g><g transform="translate(4.348 17.499)"><path class="a" d="M149.644,245.333a.311.311,0,0,0-.311.311v5.59a.311.311,0,1,0,.621,0v-5.59A.311.311,0,0,0,149.644,245.333Z" transform="translate(-149.333 -245.333)"/></g></g></svg>