<svg xmlns="http://www.w3.org/2000/svg" width="14.322" height="14.652" viewBox="0 0 14.322 14.652"><defs><style>.a{fill:#fff;stroke:#fff;stroke-width:0.1px;}</style></defs><g transform="translate(0.05 0.056)"><g transform="translate(0 0)"><g transform="translate(0 0)"><path class="a" d="M19.735,13.395h0L16.193.175A.236.236,0,0,0,15.9.008L12.713.863A.23.23,0,0,0,12.6.937V.43a.236.236,0,0,0-.236-.236H5.758A.236.236,0,0,0,5.522.43V14.116a.236.236,0,0,0,.236.236h6.607a.236.236,0,0,0,.236-.236V1.357l3.487,13.015a.236.236,0,0,0,.228.175.244.244,0,0,0,.06-.008l3.191-.855A.236.236,0,0,0,19.735,13.395ZM8.825,13.88H5.994V.666H8.825Zm3.3,0H9.3V.666h2.832Zm4.354.142L13.063,1.258,15.8.524l3.42,12.764Z" transform="translate(-5.522 0)"/></g></g><g transform="translate(0.944 1.61)"><g transform="translate(0)"><path class="a" d="M39.174,54.589H37.758a.236.236,0,1,0,0,.472h1.416a.236.236,0,1,0,0-.472Z" transform="translate(-37.522 -54.589)"/></g></g><g transform="translate(0.944 2.554)"><g transform="translate(0)"><path class="a" d="M39.174,86.589H37.758a.236.236,0,1,0,0,.472h1.416a.236.236,0,1,0,0-.472Z" transform="translate(-37.522 -86.589)"/></g></g><g transform="translate(4.247 1.61)"><path class="a" d="M151.174,54.589h-1.416a.236.236,0,1,0,0,.472h1.416a.236.236,0,1,0,0-.472Z" transform="translate(-149.522 -54.589)"/></g><g transform="translate(4.247 2.554)"><path class="a" d="M151.174,86.589h-1.416a.236.236,0,1,0,0,.472h1.416a.236.236,0,1,0,0-.472Z" transform="translate(-149.522 -86.589)"/></g><g transform="translate(8.291 1.61)"><path class="a" d="M288.449,54.772a.236.236,0,0,0-.284-.175l-.012,0-1.369.366a.236.236,0,1,0,.12.456h0l1.369-.366A.236.236,0,0,0,288.449,54.772Z" transform="translate(-286.608 -54.591)"/></g><g transform="translate(8.537 2.523)"><g transform="translate(0)"><path class="a" d="M296.793,85.729a.236.236,0,0,0-.289-.167h0l-1.367.366a.236.236,0,0,0,.12.456h0l1.369-.366A.236.236,0,0,0,296.793,85.729Z" transform="translate(-294.96 -85.554)"/></g></g><g transform="translate(10.858 11.185)"><path class="a" d="M375.475,379.379a.236.236,0,0,0-.287-.166l-1.369.366a.236.236,0,0,0,.061.464h0a.245.245,0,0,0,.061-.008l1.367-.367A.236.236,0,0,0,375.475,379.379Z" transform="translate(-373.644 -379.205)"/></g><g transform="translate(11.104 12.097)"><path class="a" d="M383.82,410.291a.236.236,0,0,0-.288-.166l-1.369.367a.236.236,0,0,0,.061.464.224.224,0,0,0,.061-.008l1.369-.366A.236.236,0,0,0,383.82,410.291Z" transform="translate(-381.988 -410.117)"/></g><g transform="translate(4.247 11.521)"><path class="a" d="M151.174,390.589h-1.416a.236.236,0,1,0,0,.472h1.416a.236.236,0,0,0,0-.472Z" transform="translate(-149.522 -390.589)"/></g><g transform="translate(4.247 12.465)"><path class="a" d="M151.174,422.589h-1.416a.236.236,0,1,0,0,.472h1.416a.236.236,0,1,0,0-.472Z" transform="translate(-149.522 -422.589)"/></g><g transform="translate(0.944 11.521)"><g transform="translate(0)"><path class="a" d="M39.174,390.589H37.758a.236.236,0,0,0,0,.472h1.416a.236.236,0,0,0,0-.472Z" transform="translate(-37.522 -390.589)"/></g></g><g transform="translate(0.944 12.465)"><g transform="translate(0)"><path class="a" d="M39.174,422.589H37.758a.236.236,0,1,0,0,.472h1.416a.236.236,0,1,0,0-.472Z" transform="translate(-37.522 -422.589)"/></g></g></g></svg>