<svg xmlns="http://www.w3.org/2000/svg" width="7.225" height="7.39" viewBox="0 0 7.225 7.39"><defs><style>.a{fill:#3C6E71;stroke:#3C6E71;stroke-width:0.2px;}</style></defs><g transform="translate(-5.422 0.105)"><g transform="translate(5.522 0)"><g transform="translate(0 0)"><path class="a" d="M12.543,6.616h0L10.793.086A.117.117,0,0,0,10.651,0L9.074.426a.114.114,0,0,0-.055.036V.212A.117.117,0,0,0,8.9.1H5.639a.117.117,0,0,0-.117.117v6.76a.117.117,0,0,0,.117.117H8.9a.117.117,0,0,0,.117-.117V.67L10.741,7.1a.117.117,0,0,0,.113.086.121.121,0,0,0,.03,0l1.576-.422A.117.117,0,0,0,12.543,6.616Zm-5.389.24h-1.4V.329h1.4Zm1.632,0h-1.4V.329h1.4Zm2.151.07L9.247.621,10.6.259l1.689,6.3Z" transform="translate(-5.522 0)"/></g></g><g transform="translate(5.988 0.795)"><g transform="translate(0)"><path class="a" d="M38.338,54.589h-.7a.117.117,0,1,0,0,.233h.7a.117.117,0,1,0,0-.233Z" transform="translate(-37.522 -54.589)"/></g></g><g transform="translate(5.988 1.261)"><g transform="translate(0)"><path class="a" d="M38.338,86.589h-.7a.117.117,0,0,0,0,.233h.7a.117.117,0,0,0,0-.233Z" transform="translate(-37.522 -86.589)"/></g></g><g transform="translate(7.62 0.795)"><path class="a" d="M150.338,54.589h-.7a.117.117,0,1,0,0,.233h.7a.117.117,0,1,0,0-.233Z" transform="translate(-149.522 -54.589)"/></g><g transform="translate(7.62 1.261)"><path class="a" d="M150.338,86.589h-.7a.117.117,0,0,0,0,.233h.7a.117.117,0,1,0,0-.233Z" transform="translate(-149.522 -86.589)"/></g><g transform="translate(9.617 0.795)"><path class="a" d="M287.517,54.681a.117.117,0,0,0-.141-.086l-.006,0-.676.181a.117.117,0,1,0,.059.225h0l.676-.181A.117.117,0,0,0,287.517,54.681Z" transform="translate(-286.608 -54.591)"/></g><g transform="translate(9.739 1.246)"><g transform="translate(0)"><path class="a" d="M295.866,85.641a.117.117,0,0,0-.143-.082h0l-.675.181a.117.117,0,0,0,.059.225h0l.676-.181A.117.117,0,0,0,295.866,85.641Z" transform="translate(-294.96 -85.554)"/></g></g><g transform="translate(10.885 5.525)"><path class="a" d="M374.549,379.291a.117.117,0,0,0-.142-.082l-.676.181a.117.117,0,0,0,.03.229h0a.12.12,0,0,0,.03,0l.675-.181A.116.116,0,0,0,374.549,379.291Z" transform="translate(-373.644 -379.205)"/></g><g transform="translate(11.007 5.975)"><path class="a" d="M382.893,410.2a.117.117,0,0,0-.142-.082l-.676.181a.117.117,0,0,0,.03.229.111.111,0,0,0,.03,0l.676-.181A.117.117,0,0,0,382.893,410.2Z" transform="translate(-381.988 -410.117)"/></g><g transform="translate(7.62 5.691)"><path class="a" d="M150.338,390.589h-.7a.117.117,0,1,0,0,.233h.7a.117.117,0,1,0,0-.233Z" transform="translate(-149.522 -390.589)"/></g><g transform="translate(7.62 6.157)"><path class="a" d="M150.338,422.589h-.7a.117.117,0,1,0,0,.233h.7a.117.117,0,1,0,0-.233Z" transform="translate(-149.522 -422.589)"/></g><g transform="translate(5.988 5.691)"><g transform="translate(0)"><path class="a" d="M38.338,390.589h-.7a.117.117,0,0,0,0,.233h.7a.117.117,0,0,0,0-.233Z" transform="translate(-37.522 -390.589)"/></g></g><g transform="translate(5.988 6.157)"><g transform="translate(0)"><path class="a" d="M38.338,422.589h-.7a.117.117,0,1,0,0,.233h.7a.117.117,0,1,0,0-.233Z" transform="translate(-37.522 -422.589)"/></g></g></g></svg>