<svg xmlns="http://www.w3.org/2000/svg" width="14.333" height="14.333" viewBox="0 0 14.333 14.333"><defs><style>.a{fill:#3C6E71;stroke:#3C6E71;stroke-width:0.2px;}</style></defs><g transform="translate(-0.177 0.1)"><path class="a" d="M7.344,0A7.066,7.066,0,1,0,14.41,7.066,7.074,7.074,0,0,0,7.344,0Zm0,13.557a6.49,6.49,0,1,1,6.49-6.49A6.5,6.5,0,0,1,7.344,13.557Zm0,0"/><path class="a" d="M100.9,132.254l-5.024,5.024L93.6,135a.288.288,0,0,0-.407.407l2.478,2.478a.288.288,0,0,0,.407,0l5.228-5.228a.288.288,0,1,0-.407-.407Zm0,0" transform="translate(-89.909 -128.006)"/></g></svg>